# xmcd
#
# Track frame offsets:
#	150
#	17731
#	36141
#	50928
#	64628
#	84245
#	98549
#	115350
#	134189
#	151976
#	167325
#	187303
#
# Disc length: 2719
#
# Revision: 1
# Processed by: cddbd v1.5.1PL0 Copyright (c) Steve Scherf et al.
# Submitted via: VisiTrax 2.9.5.180 - For more info visit www.synapsa.com
# Normalized: r0:DSETVAR1
#
DISCID=a00a9d0c
DTITLE=Various Artist - CDX 273 August 2001
DYEAR=2001
DGENRE=
TTITLE0=Montgomery Gentry - Cold one comin' on
TTITLE1=K T Oslin - Drivin' cryin' missin' you
TTITLE2=Eddy Raven - Living in black and white
TTITLE3=Billy Walker - Rhumba boogie
TTITLE4=David Ball - Riding with private Malone
TTITLE5=Charlie Robison - Right man for the job
TTITLE6=Sara Evans - Saints and Angels
TTITLE7=Jamie O'Neal - Shiver
TTITLE8=Lonestar - With me
TTITLE9=Jody Jenkins - I just couldn't go on
TTITLE10=Billy Jack Gafford - The call
TTITLE11=Cerrito - You tell me (tu dices)
EXTD=
EXTT0=
EXTT1=
EXTT2=
EXTT3=
EXTT4=
EXTT5=
EXTT6=
EXTT7=
EXTT8=
EXTT9=
EXTT10=
EXTT11=
PLAYORDER=
